<?xml version="1.0" encoding="utf-8"?>
<!-- Generator: Adobe Illustrator 23.0.4, SVG Export Plug-In . SVG Version: 6.00 Build 0)  -->
<svg version="1.1" id="Layer_1" xmlns="http://www.w3.org/2000/svg" xmlns:xlink="http://www.w3.org/1999/xlink" x="0px" y="0px"
	 viewBox="0 0 1600 1600" style="enable-background:new 0 0 1600 1600;" xml:space="preserve" height="1600" width="1600">
<style type="text/css">
	.st0{fill:#072B38;}
	.st1{fill:#083041;}
	.st2{fill:none;}
	.st3{fill:#FAFAFA;}
</style>
<rect class="st0" width="1600" height="1600"/>
<g>
	<polygon class="st1" points="59.3,711.1 59.3,769.8 59.3,830.2 59.3,1026.8 59.3,1087.3 59.3,1283.7 59.3,1540.7 259.3,1540.7
		259.3,1283.7 259.3,1087.3 259.3,1026.8 259.3,830.2 259.3,769.8 259.3,711.1 259.3,573.2 59.3,573.2 	"/>
	<rect x="315.6" y="59.3" class="st1" width="200" height="196.6"/>
	<polygon class="st1" points="315.6,830.2 315.6,1026.8 315.6,1087.3 315.6,1283.7 315.6,1344.1 315.6,1377.8 315.6,1540.7
		515.6,1540.7 515.6,1377.8 515.6,1344.1 515.6,1283.7 515.6,1087.3 515.6,1026.8 515.6,830.2 515.6,573.2 315.6,573.2 	"/>
	<polygon class="st1" points="651.9,512.7 771.9,512.7 771.9,316.3 651.9,316.3 571.9,316.3 515.6,316.3 315.6,316.3 259.3,316.3
		259.3,59.3 59.3,59.3 59.3,316.3 59.3,340.7 59.3,512.7 315.6,512.7 515.6,512.7 571.9,512.7 	"/>
	<polygon class="st1" points="828.1,316.3 828.1,325.9 828.1,512.7 1084.4,512.7 1170.4,512.7 1284.4,512.7 1284.4,316.3
		1170.4,316.3 1084.4,316.3 1028.1,316.3 1028.1,59.3 844.4,59.3 828.1,59.3 571.9,59.3 571.9,255.9 828.1,255.9 	"/>
	<polygon class="st1" points="1284.4,1087.3 1028.1,1087.3 963,1087.3 828.1,1087.3 828.1,1229.6 828.1,1283.7 828.1,1344.1
		571.9,1344.1 571.9,1540.7 828.1,1540.7 829.6,1540.7 1028.1,1540.7 1028.1,1283.7 1284.4,1283.7 	"/>
	<polygon class="st1" points="1348.1,59.3 1340.7,59.3 1084.4,59.3 1084.4,255.9 1340.7,255.9 1340.7,512.7 1540.7,512.7
		1540.7,255.9 1540.7,222.2 1540.7,59.3 	"/>
	<polygon class="st1" points="1404.3,573.2 1387.5,573.2 1327.7,573.2 1310.9,573.2 1288.3,573.2 1251.1,573.2 1251.1,769.8
		1288.3,769.8 1310.9,769.8 1327.7,769.8 1387.5,769.8 1404.3,769.8 1464.1,769.8 1540.7,769.8 1540.7,573.2 1464.1,573.2 	"/>
	<polygon class="st1" points="1340.7,992.6 1340.7,1026.8 1340.7,1259.3 1340.7,1283.7 1340.7,1344.1 1084.4,1344.1 1084.4,1540.7
		1340.7,1540.7 1377.8,1540.7 1540.7,1540.7 1540.7,1283.7 1540.7,1259.3 1540.7,1026.8 1540.7,992.6 1540.7,830.2 1340.7,830.2
		"/>
</g>
<path class="st2" d="M59.3,59.3h1481.5v1481.5H59.3V59.3z"/>
<path class="st3" d="M1293.8,429.6H800l-87-87c-23.5-23.5-54.9-36.4-87.7-36.4H306.2c-67.9,0-122.8,55.6-122.8,123.5l-0.6,740.7
	c0,67.9,55.6,123.5,123.5,123.5h987.7c67.9,0,123.5-55.6,123.5-123.5V553.1C1417.3,485.2,1361.7,429.6,1293.8,429.6z M985.2,614.8
	c67.9,0,123.5,55.6,123.5,123.5s-55.6,123.5-123.5,123.5s-123.5-55.6-123.5-123.5S917.3,614.8,985.2,614.8z M1232.1,1108.6H738.3
	v-61.7c0-82.1,164.8-123.5,246.9-123.5s246.9,41.4,246.9,123.5V1108.6z"/>
</svg>
