<svg xmlns="http://www.w3.org/2000/svg" viewBox="0 0 108 108" fill="#083041" height="2048" width="2048">
  <rect width="108" height="108" fill="#072b38"/>
  <g>
    <polygon class="a" points="4 48 4 51.96 4 56.04 4 69.31 4 73.39 4 86.65 4 104 17.5 104 17.5 86.65 17.5 73.39 17.5 69.31 17.5 56.04 17.5 51.96 17.5 48 17.5 38.69 4 38.69 4 48"/>
    <rect class="a" x="21.3" y="4" width="13.5" height="13.27"/>
    <polygon fill="#083041" points="21.3 56.04 21.3 69.31 21.3 73.39 21.3 86.65 21.3 90.73 21.3 93 21.3 104 34.8 104 34.8 93 34.8 90.73 34.8 86.65 34.8 73.39 34.8 69.31 34.8 56.04 34.8 38.69 21.3 38.69 21.3 56.04"/>
    <polygon class="a" points="44 34.61 52.1 34.61 52.1 21.35 44 21.35 38.6 21.35 34.8 21.35 21.3 21.35 17.5 21.35 17.5 4 4 4 4 21.35 4 23 4 34.61 21.3 34.61 34.8 34.61 38.6 34.61 44 34.61"/>
    <polygon class="a" points="55.9 21.35 55.9 22 55.9 34.61 73.2 34.61 79 34.61 86.7 34.61 86.7 21.35 79 21.35 73.2 21.35 69.4 21.35 69.4 4 57 4 55.9 4 38.6 4 38.6 17.27 55.9 17.27 55.9 21.35"/>
    <polygon class="a" points="38.6 86.65 52.1 86.65 52.1 69.31 55.9 69.31 69.4 69.31 73.2 69.31 77 69.31 86.7 69.31 86.7 56.04 77 56.04 73.2 56.04 69.4 56.04 55.9 56.04 38.6 56.04 38.6 68 38.6 69.31 38.6 86.65"/>
    <polygon class="a" points="86.7 73.39 69.4 73.39 65 73.39 55.9 73.39 55.9 83 55.9 86.65 55.9 90.73 38.6 90.73 38.6 104 55.9 104 56 104 69.4 104 69.4 86.65 86.7 86.65 86.7 73.39"/>
    <polygon class="a" points="91 4 90.5 4 73.2 4 73.2 17.27 90.5 17.27 90.5 34.61 104 34.61 104 17.27 104 15 104 4 91 4"/>
    <polygon class="a" points="73.2 38.69 69.4 38.69 55.9 38.69 52.1 38.69 47 38.69 38.6 38.69 38.6 51.96 47 51.96 52.1 51.96 55.9 51.96 69.4 51.96 73.2 51.96 86.7 51.96 104 51.96 104 38.69 86.7 38.69 73.2 38.69"/>
    <polygon class="a" points="90.5 67 90.5 69.31 90.5 85 90.5 86.65 90.5 90.73 73.2 90.73 73.2 104 90.5 104 93 104 104 104 104 86.65 104 85 104 69.31 104 67 104 56.04 90.5 56.04 90.5 67"/>
  </g>
</svg>
