<svg xmlns="http://www.w3.org/2000/svg" viewBox="0 0 1600 1600" height="2048" width="2048">
  <defs>
    <style>
      .a {
        fill: #072b38;
      }

      .b {
        fill: #083041;
      }

      .c {
        fill: #e74c3c;
      }

      .c, .d, .e {
        opacity: 0.71;
      }

      .d {
        fill: #f1c40f;
      }

      .e {
        fill: #2ecc71;
      }

      .f {
        fill: #123849;
      }

      .g {
        fill: none;
      }

      .h {
        fill: #315c68;
      }
    </style>
  </defs>
  <title>monitorIcon</title>
  <rect class="a" width="1600" height="1600"/>
  <g>
    <path class="b" d="M1540.74,102.54H59.26V69.25A9.29,9.29,0,0,1,68.6,60H1531.4a9.29,9.29,0,0,1,9.34,9.25Z"/>
    <path class="c" d="M92.18,83.12a8.71,8.71,0,1,1-8.71-8.71A8.71,8.71,0,0,1,92.18,83.12Z"/>
    <circle class="d" cx="111.97" cy="83.12" r="8.71"/>
    <path class="e" d="M149.19,83.12a8.71,8.71,0,1,1-8.71-8.71A8.71,8.71,0,0,1,149.19,83.12Z"/>
    <path class="f" d="M368.13,76.73A5.36,5.36,0,0,0,362.58,73H194.28a5.43,5.43,0,0,0-5.55,3.78l-7.4,23c-.64,1.85-3.7,2.83-3.7,2.83h201.6s-3.06-.81-3.7-2.83Z"/>
    <path class="f" d="M1540.74,1524.11c0,9.12-4.64,16.52-10.36,16.52H69.62c-5.72,0-10.36-7.4-10.36-16.52V141.38H1540.74Z"/>
    <rect class="f" x="59.26" y="102.54" width="1481.48" height="38.84"/>
  </g>
  <path class="g" d="M324.67,335.14h950.66V1285.8H324.67Z"/>
  <path class="h" d="M780.19,671.83a99,99,0,1,0,99,99A99.06,99.06,0,0,0,780.19,671.83Zm336.7-198.06H483.11A79.46,79.46,0,0,0,403.89,553v475.33a79.45,79.45,0,0,0,79.22,79.22h633.78a79.45,79.45,0,0,0,79.22-79.22V553A79.46,79.46,0,0,0,1116.89,473.77ZM989.74,1036.65,874.47,921.38a175.62,175.62,0,0,1-94.67,27.73C681.56,949.11,602,869.49,602,770.86a178.25,178.25,0,1,1,356.49,0c0,34.85-10.29,66.94-27.72,94.67L1046,980.4Z"/>
</svg>
