<?xml version="1.0" encoding="utf-8"?>
<!-- Generator: Adobe Illustrator 23.0.4, SVG Export Plug-In . SVG Version: 6.00 Build 0)  -->
<svg version="1.1" id="Layer_1" xmlns="http://www.w3.org/2000/svg" xmlns:xlink="http://www.w3.org/1999/xlink" x="0px" y="0px"
	 viewBox="0 0 1600 1600" style="enable-background:new 0 0 1600 1600;" xml:space="preserve">
<style type="text/css">
	.st0{fill:#072B38;}
	.st1{display:none;}
	.st2{display:inline;fill:#123849;}
	.st3{fill:#083041;}
	.st4{opacity:0.71;fill:#E74C3C;}
	.st5{opacity:0.71;fill:#F1C40F;}
	.st6{opacity:0.71;fill:#2ECC71;}
	.st7{fill:#123849;}
	.st8{fill:none;}
</style>
<rect class="st0" width="1600" height="1600"/>
<g class="st1">
	<polygon class="st2" points="59.3,711.1 59.3,769.8 59.3,830.2 59.3,1026.8 59.3,1087.3 59.3,1283.7 59.3,1540.7 259.3,1540.7 
		259.3,1283.7 259.3,1087.3 259.3,1026.8 259.3,830.2 259.3,769.8 259.3,711.1 259.3,573.2 59.3,573.2 	"/>
	<rect x="315.6" y="59.3" class="st2" width="200" height="196.6"/>
	<polygon class="st2" points="315.6,830.2 315.6,1026.8 315.6,1087.3 315.6,1283.7 315.6,1344.1 315.6,1377.8 315.6,1540.7 
		515.6,1540.7 515.6,1377.8 515.6,1344.1 515.6,1283.7 515.6,1087.3 515.6,1026.8 515.6,830.2 515.6,573.2 315.6,573.2 	"/>
	<polygon class="st2" points="651.9,512.7 771.9,512.7 771.9,316.3 651.9,316.3 571.9,316.3 515.6,316.3 315.6,316.3 259.3,316.3 
		259.3,59.3 59.3,59.3 59.3,316.3 59.3,340.7 59.3,512.7 315.6,512.7 515.6,512.7 571.9,512.7 	"/>
	<polygon class="st2" points="828.1,316.3 828.1,325.9 828.1,512.7 1084.4,512.7 1170.4,512.7 1284.4,512.7 1284.4,316.3 
		1170.4,316.3 1084.4,316.3 1028.1,316.3 1028.1,59.3 844.4,59.3 828.1,59.3 571.9,59.3 571.9,255.9 828.1,255.9 	"/>
	<polygon class="st2" points="1284.4,1087.3 1028.1,1087.3 963,1087.3 828.1,1087.3 828.1,1229.6 828.1,1283.7 828.1,1344.1 
		571.9,1344.1 571.9,1540.7 828.1,1540.7 829.6,1540.7 1028.1,1540.7 1028.1,1283.7 1284.4,1283.7 	"/>
	<polygon class="st2" points="1348.1,59.3 1340.7,59.3 1084.4,59.3 1084.4,255.9 1340.7,255.9 1340.7,512.7 1540.7,512.7 
		1540.7,255.9 1540.7,222.2 1540.7,59.3 	"/>
	<polygon class="st2" points="1404.3,573.2 1387.5,573.2 1327.7,573.2 1310.9,573.2 1288.3,573.2 1251.1,573.2 1251.1,769.8 
		1288.3,769.8 1310.9,769.8 1327.7,769.8 1387.5,769.8 1404.3,769.8 1464.1,769.8 1540.7,769.8 1540.7,573.2 1464.1,573.2 	"/>
	<polygon class="st2" points="1340.7,992.6 1340.7,1026.8 1340.7,1259.3 1340.7,1283.7 1340.7,1344.1 1084.4,1344.1 1084.4,1540.7 
		1340.7,1540.7 1377.8,1540.7 1540.7,1540.7 1540.7,1283.7 1540.7,1259.3 1540.7,1026.8 1540.7,992.6 1540.7,830.2 1340.7,830.2 	
		"/>
</g>
<g>
	<path class="st3" d="M1540.7,296.3H59.3V263c0-5.1,4.2-9.2,9.3-9.2h1462.8c5.2,0,9.3,4.1,9.3,9.2V296.3z"/>
	<path class="st4" d="M92.2,276.9c0,4.8-3.9,8.7-8.7,8.7c-4.8,0-8.7-3.9-8.7-8.7s3.9-8.7,8.7-8.7C88.3,268.2,92.2,272.1,92.2,276.9z
		"/>
	<circle class="st5" cx="112" cy="276.9" r="8.7"/>
	<path class="st6" d="M149.2,276.9c0,4.8-3.9,8.7-8.7,8.7c-4.8,0-8.7-3.9-8.7-8.7s3.9-8.7,8.7-8.7
		C145.3,268.2,149.2,272.1,149.2,276.9z"/>
	<path class="st7" d="M368.1,270.5c-0.7-2.2-2.5-3.8-5.5-3.8H194.3c-3.1,0-4.8,1.7-5.5,3.8l-7.4,23c-0.6,1.8-3.7,2.8-3.7,2.8h201.6
		c0,0-3.1-0.8-3.7-2.8L368.1,270.5z"/>
	<path class="st7" d="M1540.7,1274.6c0,6.2-4.6,11.2-10.4,11.2H69.6c-5.7,0-10.4-5-10.4-11.2V335.1h1481.5V1274.6z"/>
	<rect x="59.3" y="296.3" class="st7" width="1481.5" height="38.8"/>
</g>
<path class="st8" d="M324.7,335.1h950.7v950.7H324.7V335.1z"/>
<path class="st3" d="M780.2,671.8c-54.7,0-99,44.4-99,99s44.4,99,99,99c54.7,0,99-44.4,99-99S834.9,671.8,780.2,671.8z
	 M1116.9,473.8H483.1c-43.6,0-79.2,35.6-79.2,79.2v475.3c0,43.6,35.6,79.2,79.2,79.2h633.8c43.6,0,79.2-35.6,79.2-79.2V553
	C1196.1,509.4,1160.5,473.8,1116.9,473.8z M989.7,1036.6L874.5,921.4c-27.3,17.4-59.8,27.7-94.7,27.7
	c-98.2,0-177.9-79.6-177.9-178.2s79.6-178.2,178.2-178.2s178.2,79.6,178.2,178.2c0,34.9-10.3,66.9-27.7,94.7L1046,980.4
	C1046,980.4,989.7,1036.6,989.7,1036.6z"/>
</svg>
