<svg xmlns="http://www.w3.org/2000/svg" viewBox="0 0 1933.38 329.79" fill="#fff" preserveAspectRatio="xMinYMin">
    <path d="M.76,90.24h60.7V122h.91c16.76-24,41.22-38,71.57-38,29.45,0,55.72,10.87,68.41,39,13.59-20.39,38.05-39,70.67-39,49.83,0,85.61,23.1,85.61,83.81V324.44H294.31V191.71c0-31.25-2.72-57.07-39.42-57.07-36.24,0-43,29.89-43,59.34V324.44H147.53V193.07c0-27.18,1.82-58.43-39-58.43-12.68,0-43.48,8.15-43.48,53.9v135.9H.76V90.24"
          transform="translate(-0.76 -1)"/>
    <path d="M442,223c1.81,40.77,21.74,59.35,57.53,59.35,25.82,0,46.66-15.86,50.74-30.36h56.62c-18.12,55.27-56.62,78.83-109.63,78.83-73.84,0-119.59-50.74-119.59-123.22,0-70.22,48.47-123.67,119.59-123.67C577,83.9,615.48,150.94,611,223H442M546.62,182.2c-5.89-32.62-19.93-49.83-51.19-49.83-40.77,0-52.55,31.71-53.45,49.83Z"
          transform="translate(-0.76 -1)"/>
    <path d="M802.56,294.55h-.9c-14.95,25.36-41.23,36.24-71.13,36.24-70.66,0-105.09-60.71-105.09-125.49,0-63,34.88-121.4,103.74-121.4,27.63,0,54.81,11.78,69.3,34.88h.91V1h64.33V324.44H802.56V294.55M746.39,132.37c-42.13,0-56.62,36.24-56.62,74.75,0,36.69,16.76,75.2,56.62,75.2,42.58,0,55.27-37.15,55.27-75.66C801.66,168.61,788.07,132.37,746.39,132.37Z"
          transform="translate(-0.76 -1)"/>
    <path d="M893.61,1h64.33V54H893.61Zm0,89.24h64.33v234.2H893.61Z" transform="translate(-0.76 -1)"/>
    <path d="M983.76,162.27c3.62-60.25,57.53-78.37,110.08-78.37,46.65,0,102.83,10.42,102.83,66.59V272.35c0,21.29,2.26,42.58,8.15,52.09h-65.23a95.21,95.21,0,0,1-4.53-22.65c-20.39,21.29-50.28,29-78.82,29-44.4,0-79.73-22.2-79.73-70.22,0-53,39.86-65.68,79.73-71.12,39.41-5.89,76.1-4.53,76.1-30.8,0-27.64-19-31.72-41.68-31.72-24.46,0-40.31,10-42.58,35.34H983.76m148.58,47.56c-10.87,9.52-33.52,10-53.45,13.59-19.94,4.08-38.06,10.88-38.06,34.43,0,24,18.58,29.9,39.42,29.9,50.28,0,52.09-39.86,52.09-53.91Z"
          transform="translate(-0.76 -1)"/>
    <path d="M1225.2,1h64.33V118.78h.9c15.86-24,44.85-34.88,73.84-34.88,46.66,0,97,37.6,97,123.22,0,86.07-50.29,123.67-97,123.67-34.43,0-63-10.42-77-36.24h-.9v29.89H1225.2V1m116.88,131.37c-38.06,0-54.82,35.79-54.82,75.2,0,39,16.76,74.75,54.82,74.75s54.81-35.79,54.81-74.75C1396.89,168.16,1380.13,132.37,1342.08,132.37Z"
          transform="translate(-0.76 -1)"/>
    <path d="M1593.49,83.9c73.84,0,121.4,48.92,121.4,123.67,0,74.29-47.56,123.22-121.4,123.22-73.39,0-121-48.93-121-123.22,0-74.75,47.57-123.67,121-123.67m0,198.42c43.94,0,57.07-37.6,57.07-74.75,0-37.6-13.13-75.2-57.07-75.2-43.49,0-56.63,37.6-56.63,75.2C1536.86,244.72,1550,282.32,1593.49,282.32Z"
          transform="translate(-0.76 -1)"/>
    <polyline class="cls-1"
              points="1774.38 200.23 1697.37 89.24 1770.75 89.24 1811.97 150.4 1852.75 89.24 1923.87 89.24 1846.86 198.87 1933.38 323.44 1859.99 323.44 1811.07 249.6 1762.14 323.44 1690.12 323.44 1774.38 200.23"/>
</svg>
