<svg id="Layer_1" data-name="Layer 1" xmlns="http://www.w3.org/2000/svg" viewBox="0 0 1933.38 753.69"><defs><style>.cls-1{fill:#fff;}.cls-2{fill:#95b0b8;}</style></defs><title>mediabox-darkbg</title><path class="cls-1" d="M6.76,518.88h60.7v31.71h.91c16.76-24,41.22-38.06,71.57-38.06,29.45,0,55.72,10.88,68.41,39,13.59-20.38,38.05-39,70.67-39,49.83,0,85.61,23.11,85.61,83.81V753.08H300.31V620.35c0-31.26-2.72-57.08-39.42-57.08-36.24,0-43,29.9-43,59.34V753.08H153.53V621.71c0-27.18,1.82-58.44-39-58.44-12.68,0-43.48,8.15-43.48,53.91v135.9H6.76V518.88" transform="translate(-6.76 -5.73)"/><path class="cls-1" d="M448,651.61c1.81,40.77,21.74,59.34,57.53,59.34,25.82,0,46.66-15.86,50.74-30.35h56.62c-18.12,55.27-56.62,78.82-109.63,78.82-73.84,0-119.59-50.74-119.59-123.22,0-70.21,48.47-123.67,119.59-123.67,79.73,0,118.24,67.05,113.71,139.08H448m104.64-40.77C546.73,578.22,532.69,561,501.43,561c-40.77,0-52.55,31.7-53.45,49.83Z" transform="translate(-6.76 -5.73)"/><path class="cls-1" d="M808.56,723.18h-.9c-14.95,25.37-41.23,36.24-71.13,36.24-70.66,0-105.09-60.7-105.09-125.48,0-63,34.88-121.41,103.74-121.41,27.63,0,54.81,11.78,69.3,34.89h.91V429.63h64.33V753.08H808.56v-29.9M752.39,561c-42.13,0-56.62,36.24-56.62,74.74,0,36.69,16.76,75.2,56.62,75.2,42.58,0,55.27-37.15,55.27-75.65C807.66,597.25,794.07,561,752.39,561Z" transform="translate(-6.76 -5.73)"/><path class="cls-1" d="M899.61,429.63h64.33v53H899.61Zm0,89.25h64.33v234.2H899.61Z" transform="translate(-6.76 -5.73)"/><path class="cls-1" d="M989.76,590.9c3.62-60.25,57.53-78.37,110.08-78.37,46.65,0,102.83,10.42,102.83,66.59V701c0,21.29,2.26,42.59,8.15,52.1h-65.23a95.31,95.31,0,0,1-4.53-22.65c-20.39,21.29-50.28,29-78.82,29-44.4,0-79.73-22.2-79.73-70.21,0-53,39.86-65.69,79.73-71.13,39.41-5.88,76.1-4.53,76.1-30.8,0-27.63-19-31.71-41.68-31.71-24.46,0-40.31,10-42.58,35.33H989.76m148.58,47.57c-10.87,9.51-33.52,10-53.45,13.59-19.94,4.08-38.06,10.87-38.06,34.43,0,24,18.58,29.89,39.42,29.89,50.28,0,52.09-39.86,52.09-53.9Z" transform="translate(-6.76 -5.73)"/><path class="cls-1" d="M1231.2,429.63h64.33V547.42h.9c15.86-24,44.85-34.89,73.84-34.89,46.66,0,97,37.6,97,123.22,0,86.07-50.29,123.67-97,123.67-34.43,0-63-10.42-77-36.24h-.9v29.9H1231.2V429.63M1348.08,561c-38.06,0-54.82,35.78-54.82,75.19,0,39,16.76,74.75,54.82,74.75s54.81-35.79,54.81-74.75C1402.89,596.79,1386.13,561,1348.08,561Z" transform="translate(-6.76 -5.73)"/><path class="cls-1" d="M1599.49,512.53c73.84,0,121.4,48.93,121.4,123.67,0,74.3-47.56,123.22-121.4,123.22-73.39,0-121-48.92-121-123.22,0-74.74,47.57-123.67,121-123.67m0,198.42c43.94,0,57.07-37.6,57.07-74.75,0-37.6-13.13-75.19-57.07-75.19-43.49,0-56.63,37.59-56.63,75.19C1542.86,673.35,1556,711,1599.49,711Z" transform="translate(-6.76 -5.73)"/><polyline class="cls-1" points="1774.38 624.13 1697.37 513.14 1770.75 513.14 1811.97 574.3 1852.75 513.14 1923.87 513.14 1846.86 622.77 1933.38 747.35 1859.99 747.35 1811.07 673.51 1762.14 747.35 1690.12 747.35 1774.38 624.13"/><polyline class="cls-1" points="1492.24 226.35 1231.11 226.35 1492.25 0 1492.24 226.35"/><polyline class="cls-2" points="1492.25 0 1914.56 0 1653.42 226.35 1492.24 226.35"/></svg>