<svg id="Layer_1" data-name="Layer 1" xmlns="http://www.w3.org/2000/svg" viewBox="0 0 428.87 167.19"><defs><style>.cls-1{fill:#a2b8c0;}.cls-2{fill:#333334;}</style></defs><title>mediabox-lightbg</title><path d="M.13,114.07H13.59v7h.2a18.79,18.79,0,0,1,15.88-8.44c6.53,0,12.36,2.41,15.17,8.64a18.88,18.88,0,0,1,15.68-8.64c11,0,19,5.13,19,18.59V166H65.24V136.58c0-6.94-.6-12.66-8.74-12.66S47,130.55,47,137.08V166H32.69V136.88c0-6,.4-13-8.65-13-2.81,0-9.64,1.81-9.64,12V166H.13Z" transform="translate(-0.13 -0.24)"/><path d="M121.21,134.47c-1.3-7.24-4.42-11.06-11.35-11.06-9,0-11.66,7-11.86,11.06Zm-23.21,9c.4,9.05,4.82,13.17,12.76,13.17,5.73,0,10.35-3.52,11.26-6.74h12.56c-4,12.26-12.56,17.49-24.32,17.49-16.38,0-26.53-11.26-26.53-27.33,0-15.58,10.75-27.44,26.53-27.44,17.69,0,26.23,14.88,25.22,30.85Z" transform="translate(-0.13 -0.24)"/><path d="M165.53,123.41c-9.35,0-12.56,8-12.56,16.58,0,8.14,3.71,16.69,12.56,16.69,9.44,0,12.26-8.24,12.26-16.79s-3-16.48-12.26-16.48m12.46,36h-.2c-3.32,5.63-9.15,8-15.78,8-15.68,0-23.31-13.47-23.31-27.84,0-14,7.73-26.93,23-26.93,6.13,0,12.16,2.61,15.37,7.74h.2V94.27h14.27V166H178Z" transform="translate(-0.13 -0.24)"/><path d="M198.18,114.07h14.27v52H198.18Zm14.27-8H198.18V94.27h14.27Z" transform="translate(-0.13 -0.24)"/><path d="M251.14,140.6c-2.41,2.11-7.43,2.21-11.86,3s-8.44,2.41-8.44,7.64,4.12,6.63,8.74,6.63c11.16,0,11.56-8.84,11.56-12Zm-33-10.55c.8-13.37,12.76-17.39,24.42-17.39,10.35,0,22.81,2.31,22.81,14.77v27c0,4.72.5,9.44,1.81,11.55H252.75a20.81,20.81,0,0,1-1-5c-4.52,4.72-11.15,6.43-17.48,6.43-9.85,0-17.69-4.92-17.69-15.58,0-11.76,8.85-14.57,17.69-15.77s16.88-1,16.88-6.84c0-6.13-4.22-7-9.24-7-5.43,0-9,2.21-9.45,7.84Z" transform="translate(-0.13 -0.24)"/><path d="M297.67,123.41c-8.45,0-12.16,7.94-12.16,16.68s3.71,16.59,12.16,16.59,12.15-7.94,12.15-16.59-3.72-16.68-12.15-16.68M271.74,94.27H286V120.4h.2c3.52-5.32,10-7.74,16.38-7.74,10.35,0,21.5,8.34,21.5,27.33s-11.15,27.44-21.5,27.44c-7.64,0-14-2.31-17.08-8h-.2V166H271.74Z" transform="translate(-0.13 -0.24)"/><path d="M353.43,156.68c9.75,0,12.67-8.34,12.67-16.59s-2.92-16.68-12.67-16.68-12.56,8.35-12.56,16.68,2.92,16.59,12.56,16.59m0-44c16.38,0,26.94,10.85,26.94,27.43s-10.56,27.34-26.94,27.34-26.83-10.85-26.83-27.34,10.56-27.43,26.83-27.43" transform="translate(-0.13 -0.24)"/><polygon points="393.6 138.45 376.52 113.83 392.8 113.83 401.94 127.4 410.99 113.83 426.76 113.83 409.68 138.15 428.87 165.78 412.6 165.78 401.74 149.4 390.89 165.78 374.91 165.78 393.6 138.45"/><polygon class="cls-1" points="331.02 50.21 273.09 50.21 331.02 0 331.02 50.21"/><polyline class="cls-2" points="331.02 0 424.7 0 366.77 50.21 331.02 50.21"/></svg>