<svg xmlns="http://www.w3.org/2000/svg" id="nectar-svg-animation-instance-1" style="width: 100px; height: 100px;" viewBox="0 0 64 64" x="0px" y="0px" width="64px" height="64px" xmlns:xml="http://www.w3.org/XML/1998/namespace" xml:space="preserve" enable-background="new 0 0 64 64" xmlns:xlink="http://www.w3.org/1999/xlink" version="1.1">
<path style="stroke-dasharray: 18px, 20px; stroke-dashoffset: 0;" fill="none" stroke="#ffffff" stroke-miterlimit="10" stroke-width="2" d="M 24 32 c 0 4.418 3.582 9 8 9 h 4" />
<path style="stroke-dasharray: 163px, 165px; stroke-dashoffset: 0;" fill="none" stroke="#ffffff" stroke-miterlimit="10" stroke-width="2" d="M 41 50 h 14 c 4.565 0 8 -3.582 8 -8 s -3.435 -8 -8 -8 c 0 -11.046 -9.52 -20 -20.934 -20 C 23.966 14 14.8 20.732 13 30 c 0 0 -0.831 0 -1.667 0 C 5.626 30 1 34.477 1 40 s 4.293 10 10 10 H 41" />
<path style="stroke-dasharray: 10px, 12px; stroke-dashoffset: 0;" fill="none" stroke="#ffffff" stroke-linejoin="bevel" stroke-miterlimit="10" stroke-width="2" d="M 33 45 L 36 41 L 33 37" />
<path style="stroke-dasharray: 18px, 20px; stroke-dashoffset: 0;" fill="none" stroke="#ffffff" stroke-miterlimit="10" stroke-width="2" d="M 42 32 c 0 -4.418 -3.582 -9 -8 -9 h -4" />
<path style="stroke-dasharray: 10px, 12px; stroke-dashoffset: 0;" fill="none" stroke="#ffffff" stroke-linejoin="bevel" stroke-miterlimit="10" stroke-width="2" d="M 33 19 L 30 23 L 33 27" />
</svg>