<svg xmlns="http://www.w3.org/2000/svg" id="nectar-svg-animation-instance-3" style="width: 100px; height: 100px;" viewBox="0 0 64 64" x="0px" y="0px" width="64px" height="64px" xmlns:xml="http://www.w3.org/XML/1998/namespace" xml:space="preserve" enable-background="new 0 0 64 64" xmlns:xlink="http://www.w3.org/1999/xlink" version="1.1">
<path style="stroke-dasharray: 76px, 78px; stroke-dashoffset: 0;" fill="none" stroke="#ffffff" stroke-miterlimit="10" stroke-width="2" d="M 39 13 A 12 12 0 1 1 63 13 A 12 12 0 1 1 39 13" />
<path style="stroke-dasharray: 63px, 65px; stroke-dashoffset: 0;" fill="none" stroke="#ffffff" stroke-miterlimit="10" stroke-width="2" d="M 1 42 A 10 10 0 1 1 21 42 A 10 10 0 1 1 1 42" />
<path style="stroke-dasharray: 51px, 53px; stroke-dashoffset: 0;" fill="none" stroke="#ffffff" stroke-miterlimit="10" stroke-width="2" d="M 40 55 A 8 8 0 1 1 56 55 A 8 8 0 1 1 40 55" />
<path style="stroke-dasharray: 22px, 24px; stroke-dashoffset: 0;" fill="none" stroke="#ffffff" stroke-miterlimit="10" stroke-width="2" d="M 40 54 L 20 46" />
<path style="stroke-dasharray: 27px, 29px; stroke-dashoffset: 0;" fill="none" stroke="#ffffff" stroke-miterlimit="10" stroke-width="2" d="M 19 35 L 41 21" />
</svg>